<mxfile host="app.diagrams.net" modified="2022-04-10T22:51:22.985Z" agent="5.0 (Windows NT 10.0; Win64; x64) AppleWebKit/537.36 (KHTML, like Gecko) Chrome/100.0.4896.75 Safari/537.36" etag="w6GgXGBwW1c7PC2F3Y94" version="17.4.2" type="github">
  <diagram id="C5RBs43oDa-KdzZeNtuy" name="Page-1">
    <mxGraphModel dx="868" dy="1651" grid="1" gridSize="10" guides="1" tooltips="1" connect="1" arrows="1" fold="1" page="1" pageScale="1" pageWidth="827" pageHeight="1169" math="0" shadow="0">
      <root>
        <mxCell id="WIyWlLk6GJQsqaUBKTNV-0" />
        <mxCell id="WIyWlLk6GJQsqaUBKTNV-1" parent="WIyWlLk6GJQsqaUBKTNV-0" />
        <mxCell id="WhERLxw59ei3A0i4JcfN-0" value="Usuario&lt;br&gt;&lt;br&gt;ID_usuario&lt;br&gt;Nombre&lt;br&gt;Apellido&lt;br&gt;Email&lt;br&gt;Región (opcional)&lt;br&gt;Carito (se crea vacío)&lt;br&gt;Formaciones (*-*)&lt;br&gt;Operaciones_usuario (1-*)" style="whiteSpace=wrap;html=1;aspect=fixed;" vertex="1" parent="WIyWlLk6GJQsqaUBKTNV-1">
          <mxGeometry x="20" y="-530" width="150" height="150" as="geometry" />
        </mxCell>
        <mxCell id="WhERLxw59ei3A0i4JcfN-2" value="Producto&lt;br&gt;&lt;br&gt;ID_prod&lt;br&gt;Nombre&lt;br&gt;Precio (USD)&lt;br&gt;Fecha_capac (opcional)&lt;br&gt;Categoría&lt;br&gt;Descripción&lt;br&gt;Contenido (video)" style="whiteSpace=wrap;html=1;aspect=fixed;" vertex="1" parent="WIyWlLk6GJQsqaUBKTNV-1">
          <mxGeometry x="620" y="-533" width="156" height="156" as="geometry" />
        </mxCell>
        <mxCell id="WhERLxw59ei3A0i4JcfN-3" value="Formaciones gratuitas&lt;br&gt;&lt;br&gt;Nombre&lt;br&gt;Categoría&lt;br&gt;Descripción&lt;br&gt;Link" style="whiteSpace=wrap;html=1;aspect=fixed;" vertex="1" parent="WIyWlLk6GJQsqaUBKTNV-1">
          <mxGeometry x="640" y="-1000" width="160" height="160" as="geometry" />
        </mxCell>
        <mxCell id="WhERLxw59ei3A0i4JcfN-4" value="App Usuario" style="rounded=1;whiteSpace=wrap;html=1;" vertex="1" parent="WIyWlLk6GJQsqaUBKTNV-1">
          <mxGeometry x="330" y="-630" width="120" height="60" as="geometry" />
        </mxCell>
        <mxCell id="WhERLxw59ei3A0i4JcfN-5" value="Carrito&lt;br&gt;&lt;br&gt;ID_carrito&lt;br&gt;ID_usuario&lt;br&gt;ID_prod (se debe vaciar cada vez que se ejecute la operación)&lt;br&gt;Total" style="whiteSpace=wrap;html=1;aspect=fixed;" vertex="1" parent="WIyWlLk6GJQsqaUBKTNV-1">
          <mxGeometry x="320" y="-540" width="155" height="155" as="geometry" />
        </mxCell>
        <mxCell id="WhERLxw59ei3A0i4JcfN-7" value="" style="endArrow=none;html=1;rounded=0;exitX=0;exitY=0.5;exitDx=0;exitDy=0;entryX=1.013;entryY=0.329;entryDx=0;entryDy=0;entryPerimeter=0;" edge="1" parent="WIyWlLk6GJQsqaUBKTNV-1" source="WhERLxw59ei3A0i4JcfN-11" target="WhERLxw59ei3A0i4JcfN-5">
          <mxGeometry width="50" height="50" relative="1" as="geometry">
            <mxPoint x="610" y="-502" as="sourcePoint" />
            <mxPoint x="520" y="-500" as="targetPoint" />
          </mxGeometry>
        </mxCell>
        <mxCell id="WhERLxw59ei3A0i4JcfN-8" value="" style="endArrow=none;html=1;rounded=0;startArrow=none;exitX=0;exitY=0.5;exitDx=0;exitDy=0;entryX=0.992;entryY=0.333;entryDx=0;entryDy=0;entryPerimeter=0;" edge="1" parent="WIyWlLk6GJQsqaUBKTNV-1" source="WhERLxw59ei3A0i4JcfN-9" target="WhERLxw59ei3A0i4JcfN-0">
          <mxGeometry width="50" height="50" relative="1" as="geometry">
            <mxPoint x="320" y="-492" as="sourcePoint" />
            <mxPoint x="190" y="-470" as="targetPoint" />
          </mxGeometry>
        </mxCell>
        <mxCell id="WhERLxw59ei3A0i4JcfN-9" value="1 - 1" style="rounded=0;whiteSpace=wrap;html=1;" vertex="1" parent="WIyWlLk6GJQsqaUBKTNV-1">
          <mxGeometry x="210" y="-500" width="80" height="20" as="geometry" />
        </mxCell>
        <mxCell id="WhERLxw59ei3A0i4JcfN-10" value="" style="endArrow=none;html=1;rounded=0;" edge="1" parent="WIyWlLk6GJQsqaUBKTNV-1">
          <mxGeometry width="50" height="50" relative="1" as="geometry">
            <mxPoint x="320" y="-492" as="sourcePoint" />
            <mxPoint x="290" y="-492" as="targetPoint" />
          </mxGeometry>
        </mxCell>
        <mxCell id="WhERLxw59ei3A0i4JcfN-11" value="* - *" style="rounded=0;whiteSpace=wrap;html=1;" vertex="1" parent="WIyWlLk6GJQsqaUBKTNV-1">
          <mxGeometry x="510" y="-500" width="90" height="20" as="geometry" />
        </mxCell>
        <mxCell id="WhERLxw59ei3A0i4JcfN-15" value="Prod_Usuario&lt;br&gt;&lt;br&gt;*-*" style="rounded=0;whiteSpace=wrap;html=1;" vertex="1" parent="WIyWlLk6GJQsqaUBKTNV-1">
          <mxGeometry x="330" y="-350" width="120" height="60" as="geometry" />
        </mxCell>
        <mxCell id="WhERLxw59ei3A0i4JcfN-16" value="" style="endArrow=none;html=1;rounded=0;exitX=1;exitY=1;exitDx=0;exitDy=0;entryX=0;entryY=0;entryDx=0;entryDy=0;" edge="1" parent="WIyWlLk6GJQsqaUBKTNV-1" source="WhERLxw59ei3A0i4JcfN-0" target="WhERLxw59ei3A0i4JcfN-15">
          <mxGeometry width="50" height="50" relative="1" as="geometry">
            <mxPoint x="320" y="-300" as="sourcePoint" />
            <mxPoint x="370" y="-350" as="targetPoint" />
          </mxGeometry>
        </mxCell>
        <mxCell id="WhERLxw59ei3A0i4JcfN-17" value="" style="endArrow=none;html=1;rounded=0;entryX=1;entryY=0;entryDx=0;entryDy=0;exitX=0;exitY=1;exitDx=0;exitDy=0;" edge="1" parent="WIyWlLk6GJQsqaUBKTNV-1" source="WhERLxw59ei3A0i4JcfN-2" target="WhERLxw59ei3A0i4JcfN-15">
          <mxGeometry width="50" height="50" relative="1" as="geometry">
            <mxPoint x="320" y="-300" as="sourcePoint" />
            <mxPoint x="370" y="-350" as="targetPoint" />
          </mxGeometry>
        </mxCell>
        <mxCell id="WhERLxw59ei3A0i4JcfN-18" value="Si sobra tiempo, ver tema precios por región" style="rounded=0;whiteSpace=wrap;html=1;" vertex="1" parent="WIyWlLk6GJQsqaUBKTNV-1">
          <mxGeometry x="580" y="-614" width="210" height="34" as="geometry" />
        </mxCell>
        <mxCell id="WhERLxw59ei3A0i4JcfN-19" value="Operaciones&lt;br&gt;&lt;br&gt;Fecha_de_compra&lt;br&gt;ID_carrito&lt;br&gt;ID_usuario" style="whiteSpace=wrap;html=1;aspect=fixed;" vertex="1" parent="WIyWlLk6GJQsqaUBKTNV-1">
          <mxGeometry x="150" y="-300" width="120" height="120" as="geometry" />
        </mxCell>
        <mxCell id="WhERLxw59ei3A0i4JcfN-20" value="" style="endArrow=none;html=1;rounded=0;entryX=0;entryY=1;entryDx=0;entryDy=0;" edge="1" parent="WIyWlLk6GJQsqaUBKTNV-1" source="WhERLxw59ei3A0i4JcfN-19" target="WhERLxw59ei3A0i4JcfN-5">
          <mxGeometry width="50" height="50" relative="1" as="geometry">
            <mxPoint x="270" y="-335" as="sourcePoint" />
            <mxPoint x="320" y="-385" as="targetPoint" />
          </mxGeometry>
        </mxCell>
        <mxCell id="WhERLxw59ei3A0i4JcfN-21" value="" style="endArrow=none;html=1;rounded=0;exitX=0.133;exitY=-0.017;exitDx=0;exitDy=0;exitPerimeter=0;" edge="1" parent="WIyWlLk6GJQsqaUBKTNV-1" source="WhERLxw59ei3A0i4JcfN-19" target="WhERLxw59ei3A0i4JcfN-0">
          <mxGeometry width="50" height="50" relative="1" as="geometry">
            <mxPoint x="150" y="-300" as="sourcePoint" />
            <mxPoint x="200" y="-350" as="targetPoint" />
          </mxGeometry>
        </mxCell>
        <mxCell id="WhERLxw59ei3A0i4JcfN-22" value="" style="endArrow=none;html=1;rounded=0;entryX=1;entryY=0.5;entryDx=0;entryDy=0;exitX=0;exitY=0.321;exitDx=0;exitDy=0;exitPerimeter=0;" edge="1" parent="WIyWlLk6GJQsqaUBKTNV-1" source="WhERLxw59ei3A0i4JcfN-2" target="WhERLxw59ei3A0i4JcfN-11">
          <mxGeometry width="50" height="50" relative="1" as="geometry">
            <mxPoint x="390" y="-370" as="sourcePoint" />
            <mxPoint x="440" y="-420" as="targetPoint" />
          </mxGeometry>
        </mxCell>
      </root>
    </mxGraphModel>
  </diagram>
</mxfile>
